<svg width="36" height="37" viewBox="0 0 36 37" fill="none" xmlns="http://www.w3.org/2000/svg">
<path d="M34.56 0H1.44C0.6435 0 0 0.661375 0 1.48V35.52C0 36.3386 0.6435 37 1.44 37H34.56C35.3565 37 36 36.3386 36 35.52V1.48C36 0.661375 35.3565 0 34.56 0ZM33.12 34.04H24.8355V22.6718H29.5155L30.2175 17.0894H24.8355V13.5235C24.8355 11.9047 25.272 10.804 27.5265 10.804H30.402V5.809C29.9025 5.73963 28.197 5.587 26.208 5.587C22.059 5.587 19.2195 8.19088 19.2195 12.9685V17.0847H14.5305V22.6671H19.224V34.04H2.88V2.96H33.12V34.04Z" fill="#FDB441"/>
</svg>
