<svg width="46" height="33" viewBox="0 0 46 33" fill="none" xmlns="http://www.w3.org/2000/svg">
<path d="M44.3571 0H1.64286C0.734152 0 0 0.670312 0 1.5V31.5C0 32.3297 0.734152 33 1.64286 33H44.3571C45.2659 33 46 32.3297 46 31.5V1.5C46 0.670312 45.2659 0 44.3571 0ZM42.3036 5.19375V29.625H3.69643V5.19375L2.27946 4.18594L4.2971 1.81875L6.49442 3.37969H39.5107L41.708 1.81875L43.7257 4.18594L42.3036 5.19375ZM39.5107 3.375L23 15.0938L6.48929 3.375L4.29196 1.81406L2.27433 4.18125L3.69129 5.18906L21.2288 17.6391C21.7331 17.9968 22.3536 18.191 22.9923 18.191C23.631 18.191 24.2515 17.9968 24.7558 17.6391L42.3036 5.19375L43.7205 4.18594L41.7029 1.81875L39.5107 3.375Z" fill="#FDB441"/>
</svg>
