<svg width="38" height="37" viewBox="0 0 38 37" fill="none" xmlns="http://www.w3.org/2000/svg">
<path fill-rule="evenodd" clip-rule="evenodd" d="M11.1668 0.111C13.1929 0.0201818 13.8389 0 19 0C24.1611 0 24.8071 0.0218636 26.8315 0.111C28.8558 0.200136 30.2376 0.514636 31.4467 0.970409C32.7128 1.43627 33.8615 2.1645 34.8115 3.10632C35.7787 4.02964 36.5249 5.14636 37.0016 6.38082C37.4715 7.55809 37.7927 8.90355 37.886 10.8713C37.9793 12.8474 38 13.4764 38 18.5C38 23.5253 37.9775 24.1543 37.886 26.127C37.7945 28.0948 37.4715 29.4402 37.0016 30.6175C36.5249 31.8521 35.7775 32.9707 34.8115 33.8954C33.8615 34.8372 32.7128 35.5637 31.4467 36.0279C30.2376 36.4854 28.8558 36.7982 26.8349 36.889C24.8071 36.9798 24.1611 37 19 37C13.8389 37 13.1929 36.9781 11.1668 36.889C9.14591 36.7999 7.76409 36.4854 6.555 36.0279C5.28704 35.5637 4.13824 34.8359 3.18855 33.8954C2.22193 32.9715 1.47391 31.8534 0.996636 30.6192C0.528545 29.4419 0.207273 28.0965 0.114 26.1287C0.0207272 24.1526 0 23.5236 0 18.5C0 13.4747 0.0224545 12.8457 0.114 10.8746C0.205545 8.90354 0.528545 7.55809 0.996636 6.38082C1.47461 5.1465 2.22321 4.02848 3.19027 3.10464C4.13862 2.16366 5.28627 1.43534 6.55327 0.970409C7.76236 0.514636 9.14418 0.201818 11.1651 0.111H11.1668ZM26.6777 3.441C24.6741 3.35186 24.073 3.33336 19 3.33336C13.927 3.33336 13.3259 3.35186 11.3223 3.441C9.46891 3.52341 8.46364 3.82445 7.79345 4.07841C6.90736 4.41477 6.27346 4.81336 5.60846 5.46086C4.97808 6.058 4.49295 6.78493 4.18864 7.58836C3.92782 8.24091 3.61864 9.21973 3.534 11.0243C3.44245 12.9752 3.42345 13.5605 3.42345 18.5C3.42345 23.4395 3.44245 24.0248 3.534 25.9757C3.61864 27.7803 3.92782 28.7591 4.18864 29.4116C4.49264 30.2139 4.978 30.9421 5.60846 31.5391C6.22164 32.153 6.96955 32.6256 7.79345 32.9216C8.46364 33.1755 9.46891 33.4766 11.3223 33.559C13.3259 33.6481 13.9253 33.6666 19 33.6666C24.0747 33.6666 24.6741 33.6481 26.6777 33.559C28.5311 33.4766 29.5364 33.1755 30.2065 32.9216C31.0926 32.5852 31.7265 32.1866 32.3915 31.5391C33.022 30.9421 33.5074 30.2139 33.8114 29.4116C34.0722 28.7591 34.3814 27.7803 34.466 25.9757C34.5575 24.0248 34.5765 23.4395 34.5765 18.5C34.5765 13.5605 34.5575 12.9752 34.466 11.0243C34.3814 9.21973 34.0722 8.24091 33.8114 7.58836C33.4659 6.72559 33.0565 6.10836 32.3915 5.46086C31.7782 4.84712 31.0317 4.37476 30.2065 4.07841C29.5364 3.82445 28.5311 3.52341 26.6777 3.441ZM16.5732 24.203C17.9285 24.7524 19.4377 24.8265 20.8429 24.4128C22.2481 23.9991 23.4622 23.1232 24.2779 21.9347C25.0935 20.7462 25.4601 19.3188 25.315 17.8964C25.1699 16.474 24.5221 15.1447 23.4823 14.1357C22.8194 13.4907 22.0179 12.9968 21.1355 12.6896C20.2531 12.3824 19.3117 12.2695 18.379 12.359C17.4464 12.4486 16.5458 12.7384 15.742 13.2075C14.9382 13.6767 14.2513 14.3135 13.7306 15.0722C13.2099 15.8309 12.8685 16.6925 12.7309 17.5951C12.5933 18.4977 12.6629 19.4188 12.9348 20.292C13.2066 21.1652 13.6739 21.9689 14.3031 22.6452C14.9322 23.3215 15.7075 23.8535 16.5732 24.203ZM12.0944 11.7761C13.0012 10.8931 14.0778 10.1927 15.2627 9.71479C16.4476 9.23692 17.7175 8.99096 19 8.99096C20.2825 8.99096 21.5524 9.23691 22.7373 9.71479C23.9222 10.1927 24.9988 10.8931 25.9056 11.7761C26.8125 12.6591 27.5319 13.7074 28.0226 14.861C28.5134 16.0147 28.766 17.2513 28.766 18.5C28.766 19.7487 28.5134 20.9853 28.0226 22.139C27.5319 23.2926 26.8125 24.3409 25.9056 25.2239C24.0741 27.0072 21.5901 28.009 19 28.009C16.4099 28.009 13.9259 27.0072 12.0944 25.2239C10.2629 23.4406 9.23396 21.022 9.23396 18.5C9.23396 15.978 10.2629 13.5594 12.0944 11.7761ZM30.932 10.4071C31.1567 10.2007 31.3366 9.95246 31.4611 9.67714C31.5855 9.40181 31.6519 9.10497 31.6564 8.8042C31.661 8.50343 31.6034 8.20483 31.4873 7.92609C31.3711 7.64735 31.1987 7.39413 30.9803 7.18143C30.7618 6.96873 30.5018 6.80086 30.2155 6.68778C29.9292 6.57469 29.6226 6.51869 29.3137 6.52307C29.0048 6.52746 28.6999 6.59215 28.4171 6.71331C28.1344 6.83447 27.8794 7.00964 27.6675 7.22845C27.2552 7.654 27.0295 8.21925 27.0382 8.8042C27.047 9.38915 27.2895 9.94775 27.7144 10.3614C28.1392 10.7751 28.7129 11.0112 29.3137 11.0198C29.9144 11.0283 30.495 10.8085 30.932 10.4071Z" fill="#FDB441"/>
</svg>
